<mxfile host="Electron" agent="Mozilla/5.0 (Windows NT 10.0; Win64; x64) AppleWebKit/537.36 (KHTML, like Gecko) draw.io/26.2.2 Chrome/134.0.6998.178 Electron/35.1.2 Safari/537.36" version="26.2.2">
  <diagram name="Page-1" id="P_WRLhOBc-GiNGaM7zSz">
    <mxGraphModel dx="874" dy="529" grid="1" gridSize="10" guides="1" tooltips="1" connect="1" arrows="1" fold="1" page="1" pageScale="1" pageWidth="850" pageHeight="1100" math="0" shadow="0">
      <root>
        <mxCell id="0" />
        <mxCell id="1" parent="0" />
        <mxCell id="38tBvR-NSeqIGGWs1dww-1" value="AWS Account" style="points=[[0,0],[0.25,0],[0.5,0],[0.75,0],[1,0],[1,0.25],[1,0.5],[1,0.75],[1,1],[0.75,1],[0.5,1],[0.25,1],[0,1],[0,0.75],[0,0.5],[0,0.25]];outlineConnect=0;html=1;whiteSpace=wrap;fontSize=12;fontStyle=0;container=1;pointerEvents=0;collapsible=0;recursiveResize=0;shape=mxgraph.aws4.group;grIcon=mxgraph.aws4.group_account;strokeColor=#82b366;fillColor=#d5e8d4;verticalAlign=top;align=left;spacingLeft=30;dashed=0;" parent="1" vertex="1">
          <mxGeometry x="30" y="80" width="890" height="1010" as="geometry" />
        </mxCell>
        <mxCell id="8sgaYRQbz8JA8KUEb8VM-2" value="" style="image;aspect=fixed;html=1;points=[];align=center;fontSize=12;image=img/lib/azure2/azure_stack/User_Subscriptions.svg;" parent="38tBvR-NSeqIGGWs1dww-1" vertex="1">
          <mxGeometry x="222.61" y="790" width="26.79" height="26" as="geometry" />
        </mxCell>
        <mxCell id="8sgaYRQbz8JA8KUEb8VM-4" value="User Group 1" style="image;aspect=fixed;html=1;points=[];align=center;fontSize=12;image=img/lib/azure2/azure_stack/User_Subscriptions.svg;" parent="38tBvR-NSeqIGGWs1dww-1" vertex="1">
          <mxGeometry x="249.4000000000001" y="790" width="26.79" height="26" as="geometry" />
        </mxCell>
        <mxCell id="8sgaYRQbz8JA8KUEb8VM-5" value="" style="image;aspect=fixed;html=1;points=[];align=center;fontSize=12;image=img/lib/azure2/azure_stack/User_Subscriptions.svg;" parent="38tBvR-NSeqIGGWs1dww-1" vertex="1">
          <mxGeometry x="282.61" y="790" width="26.79" height="26" as="geometry" />
        </mxCell>
        <mxCell id="8sgaYRQbz8JA8KUEb8VM-8" value="User Group 2" style="image;aspect=fixed;html=1;points=[];align=center;fontSize=12;image=img/lib/azure2/azure_stack/User_Subscriptions.svg;labelPosition=center;verticalLabelPosition=bottom;verticalAlign=top;" parent="38tBvR-NSeqIGGWs1dww-1" vertex="1">
          <mxGeometry x="632.6100000000001" y="790" width="26.79" height="26" as="geometry" />
        </mxCell>
        <mxCell id="8sgaYRQbz8JA8KUEb8VM-26" value="" style="image;aspect=fixed;html=1;points=[];align=center;fontSize=12;image=img/lib/azure2/azure_stack/User_Subscriptions.svg;labelPosition=center;verticalLabelPosition=bottom;verticalAlign=top;" parent="38tBvR-NSeqIGGWs1dww-1" vertex="1">
          <mxGeometry x="659.4000000000001" y="790" width="26.79" height="26" as="geometry" />
        </mxCell>
        <mxCell id="8sgaYRQbz8JA8KUEb8VM-27" value="" style="image;aspect=fixed;html=1;points=[];align=center;fontSize=12;image=img/lib/azure2/azure_stack/User_Subscriptions.svg;labelPosition=center;verticalLabelPosition=bottom;verticalAlign=top;" parent="38tBvR-NSeqIGGWs1dww-1" vertex="1">
          <mxGeometry x="605.8199999999999" y="790" width="26.79" height="26" as="geometry" />
        </mxCell>
        <mxCell id="38tBvR-NSeqIGGWs1dww-8" value="Regiao Sao Paulo" style="rounded=1;arcSize=10;dashed=1;fillColor=#e1d5e7;dashPattern=1 1;strokeWidth=2;verticalAlign=bottom;rotation=0;labelPosition=center;verticalLabelPosition=top;align=center;strokeColor=#A66E61;" parent="38tBvR-NSeqIGGWs1dww-1" vertex="1">
          <mxGeometry x="100" y="120" width="710" height="520" as="geometry" />
        </mxCell>
        <mxCell id="8sgaYRQbz8JA8KUEb8VM-32" value="VPC" style="sketch=0;outlineConnect=0;gradientColor=none;html=1;whiteSpace=wrap;fontSize=12;fontStyle=0;shape=mxgraph.aws4.group;grIcon=mxgraph.aws4.group_vpc;strokeColor=#9933FF;fillColor=none;verticalAlign=top;align=left;spacingLeft=30;fontColor=#B6BABF;dashed=0;" parent="38tBvR-NSeqIGGWs1dww-1" vertex="1">
          <mxGeometry x="150" y="180" width="590" height="340" as="geometry" />
        </mxCell>
        <mxCell id="38tBvR-NSeqIGGWs1dww-2" value="Private subnet" style="points=[[0,0],[0.25,0],[0.5,0],[0.75,0],[1,0],[1,0.25],[1,0.5],[1,0.75],[1,1],[0.75,1],[0.5,1],[0.25,1],[0,1],[0,0.75],[0,0.5],[0,0.25]];outlineConnect=0;gradientColor=none;html=1;whiteSpace=wrap;fontSize=12;fontStyle=0;container=1;pointerEvents=0;collapsible=0;recursiveResize=0;shape=mxgraph.aws4.group;grIcon=mxgraph.aws4.group_security_group;grStroke=0;strokeColor=#00A4A6;fillColor=#E6F6F7;verticalAlign=top;align=left;spacingLeft=30;fontColor=#147EBA;dashed=0;" parent="38tBvR-NSeqIGGWs1dww-1" vertex="1">
          <mxGeometry x="477" y="205" width="210.7" height="270" as="geometry" />
        </mxCell>
        <mxCell id="38tBvR-NSeqIGGWs1dww-6" value="DynamoDB" style="outlineConnect=0;dashed=0;verticalLabelPosition=bottom;verticalAlign=top;align=center;html=1;shape=mxgraph.aws3.dynamo_db;fillColor=#2E73B8;gradientColor=none;" parent="38tBvR-NSeqIGGWs1dww-2" vertex="1">
          <mxGeometry x="79" y="70" width="51" height="60" as="geometry" />
        </mxCell>
        <mxCell id="38tBvR-NSeqIGGWs1dww-3" value="Public subnet" style="points=[[0,0],[0.25,0],[0.5,0],[0.75,0],[1,0],[1,0.25],[1,0.5],[1,0.75],[1,1],[0.75,1],[0.5,1],[0.25,1],[0,1],[0,0.75],[0,0.5],[0,0.25]];outlineConnect=0;html=1;whiteSpace=wrap;fontSize=12;fontStyle=0;container=1;pointerEvents=0;collapsible=0;recursiveResize=0;shape=mxgraph.aws4.group;grIcon=mxgraph.aws4.group_security_group;grStroke=0;strokeColor=#36393d;fillColor=#cdeb8b;verticalAlign=top;align=left;spacingLeft=30;dashed=0;" parent="38tBvR-NSeqIGGWs1dww-1" vertex="1">
          <mxGeometry x="227" y="207" width="203" height="270" as="geometry" />
        </mxCell>
        <mxCell id="38tBvR-NSeqIGGWs1dww-5" value="EC2" style="sketch=0;points=[[0,0,0],[0.25,0,0],[0.5,0,0],[0.75,0,0],[1,0,0],[0,1,0],[0.25,1,0],[0.5,1,0],[0.75,1,0],[1,1,0],[0,0.25,0],[0,0.5,0],[0,0.75,0],[1,0.25,0],[1,0.5,0],[1,0.75,0]];outlineConnect=0;fontColor=#232F3E;fillColor=#ED7100;strokeColor=#ffffff;dashed=0;verticalLabelPosition=bottom;verticalAlign=top;align=center;html=1;fontSize=12;fontStyle=0;aspect=fixed;shape=mxgraph.aws4.resourceIcon;resIcon=mxgraph.aws4.ec2;" parent="38tBvR-NSeqIGGWs1dww-3" vertex="1">
          <mxGeometry x="82.4" y="73" width="50" height="50" as="geometry" />
        </mxCell>
        <mxCell id="5A2JlSaXjAAoakeuanII-7" style="edgeStyle=orthogonalEdgeStyle;rounded=0;orthogonalLoop=1;jettySize=auto;html=1;" parent="38tBvR-NSeqIGGWs1dww-1" source="5A2JlSaXjAAoakeuanII-2" edge="1">
          <mxGeometry relative="1" as="geometry">
            <mxPoint x="646" y="847" as="targetPoint" />
          </mxGeometry>
        </mxCell>
        <mxCell id="5A2JlSaXjAAoakeuanII-2" value="IAM" style="outlineConnect=0;dashed=0;verticalLabelPosition=bottom;verticalAlign=top;align=center;html=1;shape=mxgraph.aws3.iam;fillColor=#759C3E;gradientColor=none;" parent="38tBvR-NSeqIGGWs1dww-1" vertex="1">
          <mxGeometry x="430" y="877" width="42" height="81" as="geometry" />
        </mxCell>
        <mxCell id="5A2JlSaXjAAoakeuanII-8" style="edgeStyle=orthogonalEdgeStyle;rounded=0;orthogonalLoop=1;jettySize=auto;html=1;exitX=0;exitY=0.494;exitDx=0;exitDy=0;exitPerimeter=0;" parent="38tBvR-NSeqIGGWs1dww-1" source="5A2JlSaXjAAoakeuanII-2" edge="1">
          <mxGeometry relative="1" as="geometry">
            <mxPoint x="482" y="927" as="sourcePoint" />
            <mxPoint x="263" y="847" as="targetPoint" />
          </mxGeometry>
        </mxCell>
        <mxCell id="5A2JlSaXjAAoakeuanII-9" value="Role 2" style="aspect=fixed;sketch=0;html=1;dashed=0;whitespace=wrap;verticalLabelPosition=bottom;verticalAlign=top;fillColor=#2875E2;strokeColor=#ffffff;points=[[0.005,0.63,0],[0.1,0.2,0],[0.9,0.2,0],[0.5,0,0],[0.995,0.63,0],[0.72,0.99,0],[0.5,1,0],[0.28,0.99,0]];shape=mxgraph.kubernetes.icon2;prIcon=role" parent="38tBvR-NSeqIGGWs1dww-1" vertex="1">
          <mxGeometry x="620" y="663" width="50" height="48" as="geometry" />
        </mxCell>
        <mxCell id="5A2JlSaXjAAoakeuanII-10" value="Role 1" style="aspect=fixed;sketch=0;html=1;dashed=0;whitespace=wrap;verticalLabelPosition=bottom;verticalAlign=top;fillColor=#2875E2;strokeColor=#ffffff;points=[[0.005,0.63,0],[0.1,0.2,0],[0.9,0.2,0],[0.5,0,0],[0.995,0.63,0],[0.72,0.99,0],[0.5,1,0],[0.28,0.99,0]];shape=mxgraph.kubernetes.icon2;prIcon=role" parent="38tBvR-NSeqIGGWs1dww-1" vertex="1">
          <mxGeometry x="232.61" y="663" width="50" height="48" as="geometry" />
        </mxCell>
        <mxCell id="5A2JlSaXjAAoakeuanII-11" value="" style="endArrow=classic;html=1;rounded=0;" parent="38tBvR-NSeqIGGWs1dww-1" edge="1">
          <mxGeometry width="50" height="50" relative="1" as="geometry">
            <mxPoint x="260" y="787" as="sourcePoint" />
            <mxPoint x="260" y="740" as="targetPoint" />
            <Array as="points" />
          </mxGeometry>
        </mxCell>
        <mxCell id="5A2JlSaXjAAoakeuanII-12" value="" style="endArrow=classic;html=1;rounded=0;exitX=0.284;exitY=-0.115;exitDx=0;exitDy=0;exitPerimeter=0;" parent="38tBvR-NSeqIGGWs1dww-1" edge="1">
          <mxGeometry width="50" height="50" relative="1" as="geometry">
            <mxPoint x="644.3299999999999" y="787" as="sourcePoint" />
            <mxPoint x="645" y="740" as="targetPoint" />
            <Array as="points" />
          </mxGeometry>
        </mxCell>
        <mxCell id="5A2JlSaXjAAoakeuanII-15" style="edgeStyle=orthogonalEdgeStyle;rounded=0;orthogonalLoop=1;jettySize=auto;html=1;exitX=0.5;exitY=0;exitDx=0;exitDy=0;exitPerimeter=0;entryX=0.729;entryY=0.559;entryDx=0;entryDy=0;entryPerimeter=0;" parent="38tBvR-NSeqIGGWs1dww-1" source="5A2JlSaXjAAoakeuanII-9" target="8sgaYRQbz8JA8KUEb8VM-32" edge="1">
          <mxGeometry relative="1" as="geometry" />
        </mxCell>
        <mxCell id="5A2JlSaXjAAoakeuanII-16" style="rounded=0;orthogonalLoop=1;jettySize=auto;html=1;exitX=1;exitY=0.5;exitDx=0;exitDy=0;exitPerimeter=0;" parent="38tBvR-NSeqIGGWs1dww-1" source="38tBvR-NSeqIGGWs1dww-5" target="38tBvR-NSeqIGGWs1dww-6" edge="1">
          <mxGeometry relative="1" as="geometry" />
        </mxCell>
        <mxCell id="5A2JlSaXjAAoakeuanII-17" style="edgeStyle=orthogonalEdgeStyle;rounded=0;orthogonalLoop=1;jettySize=auto;html=1;exitX=0.5;exitY=0;exitDx=0;exitDy=0;exitPerimeter=0;entryX=0.322;entryY=0.529;entryDx=0;entryDy=0;entryPerimeter=0;" parent="38tBvR-NSeqIGGWs1dww-1" source="5A2JlSaXjAAoakeuanII-10" target="8sgaYRQbz8JA8KUEb8VM-32" edge="1">
          <mxGeometry relative="1" as="geometry" />
        </mxCell>
      </root>
    </mxGraphModel>
  </diagram>
</mxfile>
